<?xml version="1.0" encoding="utf-8"?>
<!-- Generator: Adobe Illustrator 21.1.0, SVG Export Plug-In . SVG Version: 6.00 Build 0)  -->
<svg version="1.1" id="Слой_1" xmlns="http://www.w3.org/2000/svg" xmlns:xlink="http://www.w3.org/1999/xlink" x="0px" y="0px"
	 viewBox="0 0 146 45" style="enable-background:new 0 0 146 45;" xml:space="preserve">
<style type="text/css">
	.st0{fill:#353535;}
	.st1{fill:#7AA340;}
	.st2{fill:#83B544;}
	.st3{fill:#93C64A;}
	.st4{opacity:0;}
	.st5{fill:#A2CD3A;}
	.st6{fill:#95B83D;}
	.st7{fill:#7D9A3C;}
	.st8{fill:none;stroke:#83B544;stroke-width:2;stroke-linecap:round;stroke-miterlimit:10;}
</style>
<g>
	<g>
		<path class="st0" d="M50.9,24.1c-1,0.6-2.2,0.9-3.5,0.9c-1.8,0-3.3-0.6-4.4-1.8s-1.7-2.7-1.7-4.6c0-2.1,0.6-3.8,1.8-5.1
			c1.2-1.3,2.8-1.9,4.9-1.9c1.1,0,2.1,0.2,3,0.6v2.1c-1-0.7-2-1-3.1-1c-1.3,0-2.4,0.5-3.2,1.4c-0.8,0.9-1.3,2.2-1.3,3.7
			c0,1.5,0.4,2.7,1.2,3.6c0.8,0.9,1.9,1.3,3.2,1.3c1.1,0,2.2-0.4,3.2-1.1V24.1z"/>
		<path class="st0" d="M64.6,24.7h-2.1v-7.4c0-2.7-1-4-3-4c-1,0-1.9,0.4-2.5,1.2s-1,1.8-1,3v7.3H54v-19H56V14h0
			c1-1.6,2.4-2.4,4.2-2.4c2.9,0,4.3,1.7,4.3,5.2V24.7z"/>
		<path class="st0" d="M78.9,18.8h-9.1c0,1.4,0.4,2.5,1.2,3.3c0.7,0.8,1.7,1.2,3,1.2c1.4,0,2.8-0.5,4-1.4v1.9
			c-1.1,0.8-2.6,1.2-4.5,1.2c-1.8,0-3.2-0.6-4.3-1.8c-1-1.2-1.6-2.8-1.6-4.9c0-2,0.6-3.6,1.7-4.9c1.1-1.3,2.5-1.9,4.2-1.9
			s3,0.5,3.9,1.6s1.4,2.6,1.4,4.5V18.8z M76.7,17.1c0-1.2-0.3-2.1-0.9-2.8c-0.6-0.7-1.4-1-2.4-1c-1,0-1.8,0.3-2.5,1
			c-0.7,0.7-1.1,1.6-1.3,2.7H76.7z"/>
		<path class="st0" d="M81.2,24.3V22c1.1,0.8,2.4,1.2,3.7,1.2c1.8,0,2.7-0.6,2.7-1.8c0-0.3-0.1-0.6-0.2-0.9
			c-0.2-0.2-0.4-0.4-0.6-0.6c-0.3-0.2-0.6-0.3-0.9-0.5c-0.4-0.1-0.7-0.3-1.1-0.5c-0.6-0.2-1.1-0.5-1.5-0.7c-0.4-0.2-0.8-0.5-1.1-0.8
			c-0.3-0.3-0.5-0.6-0.7-1c-0.1-0.4-0.2-0.8-0.2-1.3c0-0.6,0.1-1.1,0.4-1.6c0.3-0.5,0.6-0.9,1.1-1.2s1-0.6,1.6-0.7
			c0.6-0.2,1.2-0.2,1.8-0.2c1.1,0,2.1,0.2,3,0.6v2.1c-0.9-0.6-2-0.9-3.3-0.9c-0.4,0-0.7,0-1,0.1c-0.3,0.1-0.6,0.2-0.8,0.4
			c-0.2,0.2-0.4,0.3-0.5,0.6s-0.2,0.5-0.2,0.7c0,0.3,0.1,0.6,0.2,0.8c0.1,0.2,0.3,0.4,0.5,0.6s0.5,0.3,0.9,0.5
			c0.3,0.1,0.7,0.3,1.1,0.5c0.6,0.2,1.1,0.4,1.5,0.7c0.5,0.2,0.8,0.5,1.2,0.8c0.3,0.3,0.6,0.6,0.7,1c0.2,0.4,0.3,0.8,0.3,1.3
			c0,0.6-0.1,1.2-0.4,1.7s-0.7,0.9-1.1,1.2c-0.5,0.3-1,0.5-1.6,0.7S85.3,25,84.6,25C83.3,25,82.2,24.8,81.2,24.3z"/>
		<path class="st0" d="M92.1,24.3V22c1.1,0.8,2.4,1.2,3.7,1.2c1.8,0,2.7-0.6,2.7-1.8c0-0.3-0.1-0.6-0.2-0.9
			c-0.2-0.2-0.4-0.4-0.6-0.6c-0.3-0.2-0.6-0.3-0.9-0.5c-0.4-0.1-0.7-0.3-1.1-0.5c-0.6-0.2-1.1-0.5-1.5-0.7c-0.4-0.2-0.8-0.5-1.1-0.8
			c-0.3-0.3-0.5-0.6-0.7-1c-0.1-0.4-0.2-0.8-0.2-1.3c0-0.6,0.1-1.1,0.4-1.6c0.3-0.5,0.6-0.9,1.1-1.2s1-0.6,1.6-0.7
			c0.6-0.2,1.2-0.2,1.8-0.2c1.1,0,2.1,0.2,3,0.6v2.1c-0.9-0.6-2-0.9-3.3-0.9c-0.4,0-0.7,0-1,0.1c-0.3,0.1-0.6,0.2-0.8,0.4
			c-0.2,0.2-0.4,0.3-0.5,0.6s-0.2,0.5-0.2,0.7c0,0.3,0.1,0.6,0.2,0.8c0.1,0.2,0.3,0.4,0.5,0.6s0.5,0.3,0.9,0.5
			c0.3,0.1,0.7,0.3,1.1,0.5c0.6,0.2,1.1,0.4,1.5,0.7c0.5,0.2,0.8,0.5,1.2,0.8c0.3,0.3,0.6,0.6,0.7,1c0.2,0.4,0.3,0.8,0.3,1.3
			c0,0.6-0.1,1.2-0.4,1.7s-0.7,0.9-1.1,1.2c-0.5,0.3-1,0.5-1.6,0.7S96.2,25,95.5,25C94.2,25,93.1,24.8,92.1,24.3z"/>
		<path class="st0" d="M116,24.7h-4v-1.8h-0.1c-0.9,1.4-2.2,2.1-4,2.1c-1.6,0-2.9-0.6-3.9-1.7c-1-1.1-1.5-2.7-1.5-4.8
			c0-2.1,0.5-3.8,1.6-5.1s2.5-1.9,4.2-1.9c1.7,0,2.8,0.6,3.5,1.8h0.1V5.7h4V24.7z M112.1,18.5v-1c0-0.8-0.2-1.5-0.7-2.1
			c-0.5-0.6-1.1-0.8-1.9-0.8c-0.9,0-1.6,0.3-2.1,1c-0.5,0.7-0.7,1.6-0.7,2.8c0,1.1,0.2,2,0.7,2.6c0.5,0.6,1.1,0.9,2,0.9
			c0.8,0,1.5-0.3,2-1S112.1,19.5,112.1,18.5z"/>
		<path class="st0" d="M130,24.7h-3.8v-1.8h-0.1c-0.9,1.4-2.1,2.2-3.8,2.2c-1.2,0-2.2-0.4-2.9-1.1s-1.1-1.7-1.1-2.8
			c0-2.5,1.5-3.9,4.4-4.3l3.5-0.5c0-1.4-0.8-2.1-2.3-2.1c-1.5,0-3,0.5-4.4,1.4v-3c0.6-0.3,1.3-0.5,2.3-0.8c1-0.2,1.8-0.3,2.6-0.3
			c3.7,0,5.5,1.8,5.5,5.5V24.7z M126.3,19.5v-0.9l-2.3,0.3c-1.3,0.2-1.9,0.7-1.9,1.7c0,0.5,0.2,0.8,0.5,1.1c0.3,0.3,0.7,0.4,1.3,0.4
			c0.7,0,1.4-0.3,1.8-0.8C126,20.9,126.3,20.3,126.3,19.5z"/>
		<path class="st0" d="M145.4,11.9l-5.2,13.9c-1.3,3.3-3.1,5-5.7,5c-1,0-1.8-0.1-2.4-0.3v-3.2c0.5,0.3,1.1,0.5,1.7,0.5
			c1,0,1.7-0.5,2.1-1.4l0.7-1.6l-5.2-12.8h4.4l2.4,7.8c0.2,0.5,0.3,1.1,0.4,1.7h0c0.1-0.5,0.2-1.1,0.4-1.7l2.4-7.8H145.4z"/>
	</g>
</g>
<g>
	<g>
		<path class="st1" d="M30.4,35.8c0,0.9-0.7,1.9-1.5,2.2l-15.8,5.9c-2.5,0.9-3.2,0-1.5-2.1l16.3-20.3c1.4-1.7,2.5-1.3,2.5,0.9V35.8z
			"/>
		<path class="st2" d="M2.2,21.9c-1.6,0.7-1.6,1.9,0,2.6l26,11.8c1.2,0.6,2.2-0.1,2.2-1.4V11.6c0-1.3-1-2-2.2-1.4L2.2,21.9z"/>
		<path class="st3" d="M11.3,4.3c-1.5-2.1-0.8-3,1.6-2.1l16.1,6.3c0.8,0.3,1.5,1.3,1.5,2.2v15.4c0,2.3-1.1,2.7-2.5,0.8L11.3,4.3z"/>
		<g class="st4">
			<path class="st5" d="M37.3,10.1c-1.8,0-3.3,1.5-3.3,3.3c0,1.8,1.5,3.3,3.3,3.3c1.8,0,3.3-1.5,3.3-3.3
				C40.6,11.6,39.1,10.1,37.3,10.1"/>
			<path class="st6" d="M37.3,19.5c-1.8,0-3.3,1.5-3.3,3.3c0,1.8,1.5,3.3,3.3,3.3c1.8,0,3.3-1.5,3.3-3.3
				C40.6,21,39.1,19.5,37.3,19.5"/>
			<path class="st7" d="M37.3,28.7c-1.8,0-3.3,1.5-3.3,3.3c0,1.8,1.5,3.3,3.3,3.3c1.8,0,3.3-1.5,3.3-3.3
				C40.6,30.1,39.1,28.7,37.3,28.7"/>
		</g>
	</g>
</g>
<line class="st8" x1="32.8" y1="35.1" x2="32.8" y2="11.4"/>
<g>
	<path class="st0" d="M43.5,29.6v6h2.2v-6h0.9v6h2.2v-6h0.9v6.7h-7v-6.7H43.5z"/>
	<path class="st0" d="M53.7,36.3l-0.1-0.6h0c-0.3,0.4-0.8,0.7-1.5,0.7c-1,0-1.5-0.7-1.5-1.4c0-1.2,1-1.8,2.9-1.8v-0.1
		c0-0.4-0.1-1.1-1.1-1.1c-0.4,0-0.9,0.1-1.3,0.4L51,31.8c0.4-0.3,1-0.4,1.6-0.4c1.5,0,1.8,1,1.8,2v1.8c0,0.4,0,0.8,0.1,1.2H53.7z
		 M53.6,33.9c-1,0-2,0.1-2,1.1c0,0.6,0.4,0.8,0.8,0.8c0.6,0,1-0.4,1.2-0.8c0-0.1,0.1-0.2,0.1-0.3V33.9z"/>
	<path class="st0" d="M56.3,31.5l0.7,1c0.2,0.3,0.3,0.5,0.5,0.8h0c0.2-0.3,0.3-0.5,0.5-0.8l0.7-1h0.9l-1.6,2.3l1.7,2.5h-1l-0.7-1.1
		c-0.2-0.3-0.3-0.5-0.5-0.8h0c-0.2,0.3-0.3,0.5-0.5,0.8l-0.7,1.1h-1l1.7-2.5l-1.6-2.4H56.3z"/>
	<path class="st0" d="M60.5,31.5h1.1l0.9,2.4c0.1,0.4,0.3,1,0.4,1.3h0c0.1-0.4,0.4-1.1,0.6-1.7l0.8-2.1h1.1l0.3,4.8h-0.8L64.8,34
		c0-0.5-0.1-1.1-0.1-1.7h0c-0.1,0.4-0.3,0.8-0.5,1.6l-0.9,2.4h-0.6l-0.9-2.4c-0.1-0.5-0.4-1.2-0.5-1.6h0c0,0.6,0,1.2-0.1,1.7
		L61,36.3h-0.8L60.5,31.5z"/>
	<path class="st0" d="M69.6,36.3l-0.1-0.6h0c-0.3,0.4-0.8,0.7-1.5,0.7c-1,0-1.5-0.7-1.5-1.4c0-1.2,1-1.8,2.9-1.8v-0.1
		c0-0.4-0.1-1.1-1.1-1.1c-0.4,0-0.9,0.1-1.3,0.4l-0.2-0.6c0.4-0.3,1-0.4,1.6-0.4c1.5,0,1.8,1,1.8,2v1.8c0,0.4,0,0.8,0.1,1.2H69.6z
		 M69.4,33.9c-1,0-2,0.1-2,1.1c0,0.6,0.4,0.8,0.8,0.8c0.6,0,1-0.4,1.2-0.8c0-0.1,0.1-0.2,0.1-0.3V33.9z"/>
	<path class="st0" d="M74.9,31.5v0.7h-1.5v4.1h-0.9v-4.1H71v-0.7H74.9z"/>
	<path class="st0" d="M76.5,31.5v1.9h2.3v-1.9h0.9v4.8h-0.9v-2.2h-2.3v2.2h-0.9v-4.8H76.5z"/>
	<path class="st0" d="M82,31.5v1.6c0.2,0,0.5-0.1,0.8-0.1c1,0,2.1,0.4,2.1,1.6c0,0.5-0.2,0.9-0.5,1.1c-0.5,0.4-1.3,0.6-1.9,0.6
		c-0.5,0-0.9,0-1.3-0.1v-4.8H82z M82,35.7c0.2,0,0.4,0,0.6,0c0.7,0,1.4-0.3,1.4-1c0-0.8-0.7-1-1.4-1c-0.3,0-0.5,0-0.6,0.1V35.7z
		 M86.3,31.5v4.8h-0.9v-4.8H86.3z"/>
	<path class="st0" d="M88.6,31.5v2c0,0.8,0,1.2,0,1.9l0,0c0.3-0.6,0.5-0.9,0.8-1.5l1.5-2.5h1v4.8H91v-2c0-0.8,0-1.2,0.1-2h0
		c-0.3,0.6-0.5,1-0.8,1.5c-0.5,0.8-1,1.7-1.5,2.5h-1v-4.8H88.6z M89.2,29.5c0,0.4,0.2,0.8,0.6,0.8c0.4,0,0.6-0.3,0.7-0.8h0.6
		c0,0.8-0.6,1.2-1.3,1.2c-0.9,0-1.2-0.5-1.3-1.2H89.2z"/>
	<path class="st0" d="M99.4,31.5v4.8h-0.9v-4.1h-2.2v4.1h-0.9v-4.8H99.4z"/>
	<path class="st0" d="M105.2,33.9c0,1.8-1.2,2.6-2.4,2.6c-1.3,0-2.3-1-2.3-2.5c0-1.6,1.1-2.6,2.4-2.6
		C104.3,31.4,105.2,32.4,105.2,33.9z M101.4,33.9c0,1.1,0.6,1.9,1.5,1.9c0.8,0,1.5-0.8,1.5-1.9c0-0.8-0.4-1.9-1.4-1.9
		S101.4,33,101.4,33.9z"/>
	<path class="st0" d="M106.3,33.1c0-0.6,0-1.1,0-1.6h0.8l0,0.8h0c0.4-0.6,0.9-0.9,1.7-0.9c1.2,0,2,1,2,2.5c0,1.7-1.1,2.6-2.2,2.6
		c-0.6,0-1.2-0.3-1.5-0.8h0v2.6h-0.9V33.1z M107.2,34.4c0,0.1,0,0.2,0,0.4c0.2,0.6,0.7,1,1.3,1c0.9,0,1.5-0.8,1.5-1.9
		c0-1-0.5-1.8-1.4-1.8c-0.6,0-1.2,0.4-1.3,1.1c0,0.1-0.1,0.2-0.1,0.4V34.4z"/>
	<path class="st0" d="M115.2,31.5v0.7h-1.5v4.1h-0.9v-4.1h-1.5v-0.7H115.2z"/>
	<path class="st0" d="M118.6,36.3l-0.1-0.6h0c-0.3,0.4-0.8,0.7-1.5,0.7c-1,0-1.5-0.7-1.5-1.4c0-1.2,1-1.8,2.9-1.8v-0.1
		c0-0.4-0.1-1.1-1.1-1.1c-0.5,0-0.9,0.1-1.3,0.4l-0.2-0.6c0.4-0.3,1-0.4,1.6-0.4c1.5,0,1.8,1,1.8,2v1.8c0,0.4,0,0.8,0.1,1.2H118.6z
		 M118.5,33.9c-1,0-2,0.1-2,1.1c0,0.6,0.4,0.8,0.8,0.8c0.6,0,1-0.4,1.2-0.8c0-0.1,0.1-0.2,0.1-0.3V33.9z"/>
	<path class="st0" d="M124.4,31.5v4.8h-0.9v-4.1h-1.7v1.3c0,1.4-0.1,2.3-0.8,2.7c-0.2,0.2-0.5,0.3-1,0.3l-0.1-0.7
		c0.2,0,0.4-0.1,0.5-0.2c0.4-0.3,0.5-1,0.5-2.1v-1.9H124.4z"/>
</g>
</svg>
